<svg width="200" height="300" viewBox="0 0 200 300" xmlns="http://www.w3.org/2000/svg">
    <!-- Head -->
    <rect x="50" y="30" width="100" height="100" fill="powderblue" rx="15" ry="15" stroke="steelblue" stroke-width="1"/>

    <!-- Antenna -->
    <line x1="100" y1="30" x2="100" y2="10" stroke="slategray" stroke-width="4"/>
    <circle cx="100" cy="8" r="6" fill="red" stroke="darkred" stroke-width="1"/>

    <!-- Eyes -->
    <circle cx="75" cy="75" r="15" fill="white"/>
    <circle cx="125" cy="75" r="15" fill="white"/>
    <circle cx="75" cy="75" r="8" fill="darkcyan"/> <!-- Pupil left -->
    <circle cx="125" cy="75" r="8" fill="darkcyan"/> <!-- Pupil right -->
    <circle cx="78" cy="72" r="3" fill="white"/> <!-- Highlight left -->
    <circle cx="128" cy="72" r="3" fill="white"/> <!-- Highlight right -->
    
    <!-- Mouth -->
    <path d="M80 105 Q100 115 120 105" stroke="darkslategray" stroke-width="2" fill="transparent"/>

    <!-- Body -->
    <rect x="40" y="125" width="120" height="140" fill="cornflowerblue" rx="20" ry="20" stroke="royalblue" stroke-width="1"/>

    <!-- Buttons on chest -->
    <circle cx="70" cy="150" r="10" fill="lightcoral" stroke="darkred" stroke-width="1"/>
    <rect x="90" y="140" width="20" height="20" fill="mediumseagreen" rx="3" ry="3" stroke="darkgreen" stroke-width="1"/>
    <circle cx="130" cy="150" r="10" fill="gold" stroke="darkorange" stroke-width="1"/>

    <!-- "Feet" indication -->
    <rect x="50" y="260" width="40" height="20" fill="slategray" rx="5" ry="5"/>
    <rect x="110" y="260" width="40" height="20" fill="slategray" rx="5" ry="5"/>
</svg>
