<svg width="200" height="300" viewBox="0 0 200 300" xmlns="http://www.w3.org/2000/svg">
    <!-- Body -->
    <rect x="50" y="70" width="100" height="180" fill="lightsalmon" rx="30" ry="30"/>

    <!-- Ears -->
    <polygon points="60,75 75,45 90,75" fill="lightsalmon"/>
    <polygon points="110,75 125,45 140,75" fill="lightsalmon"/>
    <polygon points="65,70 75,55 85,70" fill="pink"/> <!-- Inner left ear -->
    <polygon points="115,70 125,55 135,70" fill="pink"/> <!-- Inner right ear -->

    <!-- Eyes -->
    <circle cx="80" cy="100" r="12" fill="black"/>
    <circle cx="120" cy="100" r="12" fill="black"/>
    <circle cx="85" cy="95" r="4" fill="white"/> <!-- Highlight left -->
    <circle cx="125" cy="95" r="4" fill="white"/> <!-- Highlight right -->

    <!-- Nose -->
    <polygon points="95,110 105,110 100,118" fill="pink" stroke="black" stroke-width="0.5"/>

    <!-- Mouth -->
    <path d="M90 125 Q100 135 110 125" stroke="black" stroke-width="2" fill="transparent"/>

    <!-- Whiskers -->
    <line x1="60" y1="115" x2="30" y2="105" stroke="black" stroke-width="1"/>
    <line x1="60" y1="125" x2="30" y2="125" stroke="black" stroke-width="1"/>
    <line x1="60" y1="135" x2="30" y2="145" stroke="black" stroke-width="1"/>
    <line x1="140" y1="115" x2="170" y2="105" stroke="black" stroke-width="1"/>
    <line x1="140" y1="125" x2="170" y2="125" stroke="black" stroke-width="1"/>
    <line x1="140" y1="135" x2="170" y2="145" stroke="black" stroke-width="1"/>
</svg>
