<svg width="200" height="300" viewBox="0 0 200 300" xmlns="http://www.w3.org/2000/svg">
    <!-- Helmet -->
    <rect x="60" y="30" width="80" height="70" fill="silver" rx="20" ry="20" stroke="darkgray" stroke-width="1.5"/>
    <!-- Visor Slit -->
    <rect x="70" y="60" width="60" height="18" fill="#333333" rx="5" ry="5"/>
    
    <!-- Plume on Helmet -->
    <path d="M100,30 Q100,5 120,15 Q110,30 100,30 M100,30 Q100,5 80,15 Q90,30 100,30" 
          fill="crimson" stroke="darkred" stroke-width="1"/>

    <!-- Body Armor -->
    <rect x="50" y="95" width="100" height="130" fill="darkgray" rx="20" ry="20" stroke="dimgray" stroke-width="1.5"/>

    <!-- Shoulder Guards (Pauldrons) -->
    <circle cx="50" cy="115" r="25" fill="silver" stroke="darkgray" stroke-width="1"/>
    <circle cx="150" cy="115" r="25" fill="silver" stroke="darkgray" stroke-width="1"/>
    
    <!-- Belt (simple) -->
    <rect x="60" y="150" width="80" height="15" fill="saddlebrown" rx="3" ry="3"/>
    <rect x="90" y="145" width="20" height="25" fill="gold" rx="3" ry="3" stroke="darkgoldenrod" stroke-width="0.5"/> <!-- Buckle -->

    <!-- "Hands" (simple mittens) -->
    <ellipse cx="40" cy="170" rx="18" ry="15" fill="silver" stroke="darkgray" stroke-width="1"/>
    <ellipse cx="160" cy="170" rx="18" ry="15" fill="silver" stroke="darkgray" stroke-width="1"/>

    <!-- Legs/Feet (Greaves/Boots) -->
    <rect x="60" y="220" width="35" height="50" fill="dimgray" rx="10" ry="10" stroke="black" stroke-width="0.5"/>
    <rect x="105" y="220" width="35" height="50" fill="dimgray" rx="10" ry="10" stroke="black" stroke-width="0.5"/>
</svg>
